<mxfile host="Electron" agent="Mozilla/5.0 (Windows NT 10.0; Win64; x64) AppleWebKit/537.36 (KHTML, like Gecko) draw.io/24.7.17 Chrome/128.0.6613.36 Electron/32.0.1 Safari/537.36" version="24.7.17">
  <diagram name="Page-1" id="2a216829-ef6e-dabb-86c1-c78162f3ba2b">
    <mxGraphModel dx="1728" dy="997" grid="1" gridSize="10" guides="1" tooltips="1" connect="1" arrows="1" fold="1" page="1" pageScale="1" pageWidth="850" pageHeight="1100" background="none" math="0" shadow="0">
      <root>
        <mxCell id="0" />
        <mxCell id="1" parent="0" />
        <mxCell id="uRt4ydXFZHyDb3UG5_cy-47" value="Server" style="swimlane;html=1;startSize=20;fontStyle=0;collapsible=0;horizontal=0;swimlaneLine=1;swimlaneFillColor=#ffffff;strokeWidth=2;whiteSpace=wrap;" vertex="1" parent="1">
          <mxGeometry x="115" y="90" width="620" height="900" as="geometry" />
        </mxCell>
        <mxCell id="uRt4ydXFZHyDb3UG5_cy-52" style="edgeStyle=orthogonalEdgeStyle;rounded=0;orthogonalLoop=1;jettySize=auto;html=1;exitX=1;exitY=0.5;exitDx=0;exitDy=0;" edge="1" parent="uRt4ydXFZHyDb3UG5_cy-47" source="7a84cebc1def654-1" target="7a84cebc1def654-2">
          <mxGeometry relative="1" as="geometry" />
        </mxCell>
        <mxCell id="7a84cebc1def654-1" value="" style="shape=mxgraph.bpmn.shape;html=1;verticalLabelPosition=bottom;labelBackgroundColor=#ffffff;verticalAlign=top;perimeter=ellipsePerimeter;outline=standard;symbol=general;" parent="uRt4ydXFZHyDb3UG5_cy-47" vertex="1">
          <mxGeometry x="40" y="75" width="50" height="50" as="geometry" />
        </mxCell>
        <mxCell id="uRt4ydXFZHyDb3UG5_cy-56" style="edgeStyle=orthogonalEdgeStyle;rounded=0;orthogonalLoop=1;jettySize=auto;html=1;" edge="1" parent="uRt4ydXFZHyDb3UG5_cy-47" source="7a84cebc1def654-2" target="uRt4ydXFZHyDb3UG5_cy-55">
          <mxGeometry relative="1" as="geometry" />
        </mxCell>
        <mxCell id="7a84cebc1def654-2" value="Getting the Data Package" style="shape=ext;rounded=1;html=1;whiteSpace=wrap;" parent="uRt4ydXFZHyDb3UG5_cy-47" vertex="1">
          <mxGeometry x="170" y="60" width="110" height="80" as="geometry" />
        </mxCell>
        <mxCell id="uRt4ydXFZHyDb3UG5_cy-55" value="Analyze data" style="points=[[0.25,0,0],[0.5,0,0],[0.75,0,0],[1,0.25,0],[1,0.5,0],[1,0.75,0],[0.75,1,0],[0.5,1,0],[0.25,1,0],[0,0.75,0],[0,0.5,0],[0,0.25,0]];shape=mxgraph.bpmn.task;whiteSpace=wrap;rectStyle=rounded;size=10;html=1;container=1;expand=0;collapsible=0;taskMarker=abstract;" vertex="1" parent="uRt4ydXFZHyDb3UG5_cy-47">
          <mxGeometry x="320" y="60" width="120" height="80" as="geometry" />
        </mxCell>
        <mxCell id="7a84cebc1def654-3" value="Starting to log the Data from the User" style="shape=ext;rounded=1;html=1;whiteSpace=wrap;" parent="uRt4ydXFZHyDb3UG5_cy-47" vertex="1">
          <mxGeometry x="320" y="300" width="120" height="80" as="geometry" />
        </mxCell>
        <mxCell id="uRt4ydXFZHyDb3UG5_cy-57" value="" style="edgeStyle=elbowEdgeStyle;fontSize=12;html=1;endArrow=blockThin;endFill=1;startArrow=diamondThin;startFill=0;endSize=6;startSize=10;rounded=0;exitX=0.5;exitY=1;exitDx=0;exitDy=0;exitPerimeter=0;entryX=0.5;entryY=0;entryDx=0;entryDy=0;" edge="1" parent="uRt4ydXFZHyDb3UG5_cy-47" source="uRt4ydXFZHyDb3UG5_cy-55" target="7a84cebc1def654-3">
          <mxGeometry width="160" relative="1" as="geometry">
            <mxPoint x="370" y="370" as="sourcePoint" />
            <mxPoint x="830" y="570" as="targetPoint" />
          </mxGeometry>
        </mxCell>
        <mxCell id="uRt4ydXFZHyDb3UG5_cy-58" value="if tremor is detected" style="edgeLabel;html=1;align=center;verticalAlign=middle;resizable=0;points=[];" vertex="1" connectable="0" parent="uRt4ydXFZHyDb3UG5_cy-57">
          <mxGeometry x="-0.5028" y="-1" relative="1" as="geometry">
            <mxPoint x="61" as="offset" />
          </mxGeometry>
        </mxCell>
        <mxCell id="uRt4ydXFZHyDb3UG5_cy-66" style="edgeStyle=orthogonalEdgeStyle;rounded=0;orthogonalLoop=1;jettySize=auto;html=1;entryX=0.5;entryY=0;entryDx=0;entryDy=0;entryPerimeter=0;" edge="1" parent="uRt4ydXFZHyDb3UG5_cy-47" source="uRt4ydXFZHyDb3UG5_cy-59" target="uRt4ydXFZHyDb3UG5_cy-68">
          <mxGeometry relative="1" as="geometry">
            <mxPoint x="240" y="450" as="targetPoint" />
          </mxGeometry>
        </mxCell>
        <mxCell id="uRt4ydXFZHyDb3UG5_cy-59" value="Query the Database" style="shape=ext;rounded=1;html=1;whiteSpace=wrap;" vertex="1" parent="uRt4ydXFZHyDb3UG5_cy-47">
          <mxGeometry x="60" y="300" width="120" height="80" as="geometry" />
        </mxCell>
        <mxCell id="uRt4ydXFZHyDb3UG5_cy-60" value="" style="edgeStyle=orthogonalEdgeStyle;rounded=0;orthogonalLoop=1;jettySize=auto;html=1;" edge="1" parent="uRt4ydXFZHyDb3UG5_cy-47" source="7a84cebc1def654-3" target="uRt4ydXFZHyDb3UG5_cy-59">
          <mxGeometry relative="1" as="geometry" />
        </mxCell>
        <mxCell id="7a84cebc1def654-26" value="" style="shape=mxgraph.bpmn.shape;html=1;verticalLabelPosition=bottom;labelBackgroundColor=#ffffff;verticalAlign=top;perimeter=ellipsePerimeter;outline=end;symbol=general;" parent="uRt4ydXFZHyDb3UG5_cy-47" vertex="1">
          <mxGeometry x="465" y="720" width="50" height="50" as="geometry" />
        </mxCell>
        <mxCell id="uRt4ydXFZHyDb3UG5_cy-61" value="" style="shape=datastore;html=1;labelPosition=center;verticalLabelPosition=bottom;align=center;verticalAlign=top;" vertex="1" parent="uRt4ydXFZHyDb3UG5_cy-47">
          <mxGeometry x="70" y="170" width="100" height="100" as="geometry" />
        </mxCell>
        <mxCell id="uRt4ydXFZHyDb3UG5_cy-62" value="" style="edgeStyle=elbowEdgeStyle;fontSize=12;html=1;endFill=0;startFill=0;endSize=6;startSize=6;dashed=1;dashPattern=1 4;endArrow=none;startArrow=none;rounded=0;exitX=0.5;exitY=1;exitDx=0;exitDy=0;" edge="1" parent="uRt4ydXFZHyDb3UG5_cy-47" source="uRt4ydXFZHyDb3UG5_cy-61" target="uRt4ydXFZHyDb3UG5_cy-59">
          <mxGeometry width="160" relative="1" as="geometry">
            <mxPoint x="680" y="440" as="sourcePoint" />
            <mxPoint x="840" y="440" as="targetPoint" />
          </mxGeometry>
        </mxCell>
        <mxCell id="uRt4ydXFZHyDb3UG5_cy-69" style="edgeStyle=orthogonalEdgeStyle;rounded=0;orthogonalLoop=1;jettySize=auto;html=1;entryX=0;entryY=0.5;entryDx=0;entryDy=0;entryPerimeter=0;" edge="1" parent="uRt4ydXFZHyDb3UG5_cy-47" source="uRt4ydXFZHyDb3UG5_cy-68" target="uRt4ydXFZHyDb3UG5_cy-77">
          <mxGeometry relative="1" as="geometry">
            <mxPoint x="410" y="485" as="targetPoint" />
          </mxGeometry>
        </mxCell>
        <mxCell id="uRt4ydXFZHyDb3UG5_cy-72" style="edgeStyle=orthogonalEdgeStyle;rounded=0;orthogonalLoop=1;jettySize=auto;html=1;entryX=0.5;entryY=0;entryDx=0;entryDy=0;entryPerimeter=0;" edge="1" parent="uRt4ydXFZHyDb3UG5_cy-47" source="uRt4ydXFZHyDb3UG5_cy-68" target="uRt4ydXFZHyDb3UG5_cy-73">
          <mxGeometry relative="1" as="geometry">
            <mxPoint x="240" y="610" as="targetPoint" />
          </mxGeometry>
        </mxCell>
        <mxCell id="uRt4ydXFZHyDb3UG5_cy-68" value="" style="points=[[0.25,0.25,0],[0.5,0,0],[0.75,0.25,0],[1,0.5,0],[0.75,0.75,0],[0.5,1,0],[0.25,0.75,0],[0,0.5,0]];shape=mxgraph.bpmn.gateway2;html=1;verticalLabelPosition=bottom;labelBackgroundColor=#ffffff;verticalAlign=top;align=center;perimeter=rhombusPerimeter;outlineConnect=0;outline=none;symbol=none;" vertex="1" parent="uRt4ydXFZHyDb3UG5_cy-47">
          <mxGeometry x="95" y="465" width="50" height="50" as="geometry" />
        </mxCell>
        <mxCell id="uRt4ydXFZHyDb3UG5_cy-70" value="If User exists" style="text;html=1;strokeColor=none;fillColor=none;align=center;verticalAlign=middle;whiteSpace=wrap;rounded=0;" vertex="1" parent="uRt4ydXFZHyDb3UG5_cy-47">
          <mxGeometry x="290" y="450" width="80" height="30" as="geometry" />
        </mxCell>
        <mxCell id="uRt4ydXFZHyDb3UG5_cy-73" value="Create the User and then Store it" style="points=[[0.25,0,0],[0.5,0,0],[0.75,0,0],[1,0.25,0],[1,0.5,0],[1,0.75,0],[0.75,1,0],[0.5,1,0],[0.25,1,0],[0,0.75,0],[0,0.5,0],[0,0.25,0]];shape=mxgraph.bpmn.task;whiteSpace=wrap;rectStyle=rounded;size=10;html=1;container=1;expand=0;collapsible=0;taskMarker=abstract;" vertex="1" parent="uRt4ydXFZHyDb3UG5_cy-47">
          <mxGeometry x="60" y="600" width="120" height="80" as="geometry" />
        </mxCell>
        <mxCell id="uRt4ydXFZHyDb3UG5_cy-74" value="If User does not exist" style="text;html=1;strokeColor=none;fillColor=none;align=center;verticalAlign=middle;whiteSpace=wrap;rounded=0;" vertex="1" parent="uRt4ydXFZHyDb3UG5_cy-47">
          <mxGeometry x="40" y="530" width="80" height="30" as="geometry" />
        </mxCell>
        <mxCell id="uRt4ydXFZHyDb3UG5_cy-75" value="" style="shape=datastore;html=1;labelPosition=center;verticalLabelPosition=bottom;align=center;verticalAlign=top;" vertex="1" parent="uRt4ydXFZHyDb3UG5_cy-47">
          <mxGeometry x="70" y="760" width="100" height="100" as="geometry" />
        </mxCell>
        <mxCell id="uRt4ydXFZHyDb3UG5_cy-76" value="" style="edgeStyle=elbowEdgeStyle;fontSize=12;html=1;endFill=0;startFill=0;endSize=6;startSize=6;dashed=1;dashPattern=1 4;endArrow=none;startArrow=none;rounded=0;exitX=0.5;exitY=1;exitDx=0;exitDy=0;exitPerimeter=0;entryX=0.5;entryY=0;entryDx=0;entryDy=0;" edge="1" parent="uRt4ydXFZHyDb3UG5_cy-47" source="uRt4ydXFZHyDb3UG5_cy-73" target="uRt4ydXFZHyDb3UG5_cy-75">
          <mxGeometry width="160" relative="1" as="geometry">
            <mxPoint x="670" y="450" as="sourcePoint" />
            <mxPoint x="830" y="450" as="targetPoint" />
          </mxGeometry>
        </mxCell>
        <mxCell id="uRt4ydXFZHyDb3UG5_cy-80" style="edgeStyle=orthogonalEdgeStyle;rounded=0;orthogonalLoop=1;jettySize=auto;html=1;" edge="1" parent="uRt4ydXFZHyDb3UG5_cy-47" source="uRt4ydXFZHyDb3UG5_cy-77" target="uRt4ydXFZHyDb3UG5_cy-79">
          <mxGeometry relative="1" as="geometry" />
        </mxCell>
        <mxCell id="uRt4ydXFZHyDb3UG5_cy-77" value="" style="points=[[0.25,0.25,0],[0.5,0,0],[0.75,0.25,0],[1,0.5,0],[0.75,0.75,0],[0.5,1,0],[0.25,0.75,0],[0,0.5,0]];shape=mxgraph.bpmn.gateway2;html=1;verticalLabelPosition=bottom;labelBackgroundColor=#ffffff;verticalAlign=top;align=center;perimeter=rhombusPerimeter;outlineConnect=0;outline=none;symbol=none;" vertex="1" parent="uRt4ydXFZHyDb3UG5_cy-47">
          <mxGeometry x="270" y="465" width="50" height="50" as="geometry" />
        </mxCell>
        <mxCell id="uRt4ydXFZHyDb3UG5_cy-78" value="" style="edgeStyle=elbowEdgeStyle;fontSize=12;html=1;endArrow=blockThin;endFill=1;rounded=0;exitX=1;exitY=0.5;exitDx=0;exitDy=0;exitPerimeter=0;entryX=0.5;entryY=1;entryDx=0;entryDy=0;entryPerimeter=0;" edge="1" parent="uRt4ydXFZHyDb3UG5_cy-47" source="uRt4ydXFZHyDb3UG5_cy-73" target="uRt4ydXFZHyDb3UG5_cy-77">
          <mxGeometry width="160" relative="1" as="geometry">
            <mxPoint x="670" y="450" as="sourcePoint" />
            <mxPoint x="830" y="450" as="targetPoint" />
            <Array as="points">
              <mxPoint x="295" y="570" />
            </Array>
          </mxGeometry>
        </mxCell>
        <mxCell id="uRt4ydXFZHyDb3UG5_cy-83" style="edgeStyle=orthogonalEdgeStyle;rounded=0;orthogonalLoop=1;jettySize=auto;html=1;" edge="1" parent="uRt4ydXFZHyDb3UG5_cy-47" source="uRt4ydXFZHyDb3UG5_cy-79" target="7a84cebc1def654-26">
          <mxGeometry relative="1" as="geometry" />
        </mxCell>
        <mxCell id="uRt4ydXFZHyDb3UG5_cy-79" value="Log the Data with the Timestamp and then store it to Database" style="points=[[0.25,0,0],[0.5,0,0],[0.75,0,0],[1,0.25,0],[1,0.5,0],[1,0.75,0],[0.75,1,0],[0.5,1,0],[0.25,1,0],[0,0.75,0],[0,0.5,0],[0,0.25,0]];shape=mxgraph.bpmn.task;whiteSpace=wrap;rectStyle=rounded;size=10;html=1;container=1;expand=0;collapsible=0;taskMarker=abstract;" vertex="1" parent="uRt4ydXFZHyDb3UG5_cy-47">
          <mxGeometry x="430" y="500" width="120" height="80" as="geometry" />
        </mxCell>
        <mxCell id="uRt4ydXFZHyDb3UG5_cy-81" value="" style="shape=datastore;html=1;labelPosition=center;verticalLabelPosition=bottom;align=center;verticalAlign=top;" vertex="1" parent="uRt4ydXFZHyDb3UG5_cy-47">
          <mxGeometry x="440" y="380" width="100" height="100" as="geometry" />
        </mxCell>
        <mxCell id="uRt4ydXFZHyDb3UG5_cy-82" value="" style="edgeStyle=elbowEdgeStyle;fontSize=12;html=1;endFill=0;startFill=0;endSize=6;startSize=6;dashed=1;dashPattern=1 4;endArrow=none;startArrow=none;rounded=0;entryX=0.5;entryY=1;entryDx=0;entryDy=0;" edge="1" parent="uRt4ydXFZHyDb3UG5_cy-47" target="uRt4ydXFZHyDb3UG5_cy-81">
          <mxGeometry width="160" relative="1" as="geometry">
            <mxPoint x="490" y="500" as="sourcePoint" />
            <mxPoint x="830" y="440" as="targetPoint" />
            <Array as="points">
              <mxPoint x="490" y="450" />
            </Array>
          </mxGeometry>
        </mxCell>
      </root>
    </mxGraphModel>
  </diagram>
</mxfile>
